<?xml version="1.0" encoding="UTF-8"?>
<svg width="300px" height="280px" viewBox="0 0 300 280" version="1.1" xmlns="http://www.w3.org/2000/svg" xmlns:xlink="http://www.w3.org/1999/xlink">
    <!-- Generator: Sketch 47.1 (45422) - http://www.bohemiancoding.com/sketch -->
    <title>logo-30deb</title>
    <desc>Created with Sketch.</desc>
    <defs/>
    <g id="Page-1" stroke="none" stroke-width="1" fill="none" fill-rule="evenodd">
        <g id="logo-30deb" fill="#FEFEFE">
            <path d="M98.5696504,0.000112385893 C94.434714,0.0216765913 90.4022076,1.78994143 86.5422148,5.97339728 C84.2779733,8.48562721 82.8601268,10.9978571 82.0945975,13.504696 C82.0676422,13.607126 82.0245138,13.6987739 81.9975585,13.7904217 C77.738628,25.8070752 88.7201996,36.4220553 100.753026,46.9615607 C107.260025,53.080404 114.273783,59.1938562 119.880476,65.3180905 C120.743045,66.417865 121.54092,67.5068574 122.247148,68.622805 L122.495136,68.8546202 L69.1560742,121.352678 C43.0633857,99.8316013 29.2838584,66.8922775 5.63870723,86.3108445 C-13.0305036,107.476112 23.0733673,125.034766 41.834226,148.626007 C24.4373033,172.211857 -15.8769787,189.808248 6.69535329,211.275415 C26.0330545,231.950097 48.1094098,192.207266 69.1560742,175.516571 C90.9952232,195.873181 113.831717,231.35169 133.045424,211.275415 C153.714715,189.500958 111.384179,169.209041 96.8229497,148.264807 L149.714555,95.179124 L150.00028,94.9257445 L150.280615,95.179124 L203.17222,148.264807 C188.61099,169.209041 146.280455,189.500958 166.965919,211.275415 C186.158062,231.35169 209.005337,195.894745 230.839095,175.543526 C251.88576,192.239612 273.972897,231.950097 293.305207,211.275415 C315.877539,189.808248 275.557866,172.211857 258.166335,148.626007 C276.91102,125.034766 313.036455,107.503067 294.356462,86.3377997 C270.722093,66.9192328 256.937175,99.8531655 230.839095,121.379634 L177.500033,68.8546202 L177.753413,68.622805 C178.362601,67.6578068 179.052656,66.7089818 179.780448,65.7547657 C185.640521,59.274722 193.112518,52.7946782 199.948371,46.3254166 C211.873377,35.8506039 222.461401,25.257188 217.825097,13.2782719 C217.043395,10.8469077 215.641721,8.40476144 213.458346,5.97339728 C208.309892,0.409832288 202.891885,-0.884020035 197.279801,0.539217521 C197.279801,0.544608572 197.27441,0.539217521 197.263627,0.539217521 C189.764675,2.07566716 182.378935,8.56110193 175.025541,16.2271769 C175.003976,16.2595233 174.97163,16.2810875 174.950066,16.3026517 C166.637065,24.5940886 158.210851,34.3465005 150.00028,41.3009568 C141.751972,34.3303274 133.298803,24.5347871 124.964238,16.2271769 C117.837268,8.79291714 110.672561,2.49077811 103.405423,0.717122215 C103.200563,0.65782065 103.006486,0.61469224 102.812408,0.560781726 C102.77467,0.549999623 102.742324,0.544608572 102.72076,0.539217521 C101.324478,0.183408132 99.9389774,-0.00527866546 98.5696504,0.000112385893" id="Fill-4"/>
            <g id="Group-4" transform="translate(0.000000, 238.000000)">
                <path d="M25.4415757,2.83487179 L14.4381155,13.7271795 C17.1104605,14.2502564 19.6603673,15.4861538 21.7311685,17.4758974 C24.5153048,20.1682051 25.9260048,23.7425641 25.9260048,27.3169231 C25.9260048,30.8964103 24.5153048,34.4605128 21.6566409,37.1579487 C18.8725047,39.8553846 15.156774,41.2553846 11.4516902,41.2553846 C7.80516369,41.2553846 4.09475645,39.9015385 1.29997338,37.1579487 C0.693106202,36.6297436 0.693106202,35.6912821 1.29997338,35.1066667 C1.8482832,34.5169231 2.81714134,34.5169231 3.42933191,35.1066667 C5.67580516,37.214359 8.5238222,38.2707692 11.4516902,38.2707692 C14.3742348,38.2707692 17.2861326,37.214359 19.5379292,35.1066667 C21.7844024,32.9425641 22.8863455,30.1271795 22.8863455,27.3169231 C22.8863455,24.5015385 21.7844024,21.6964103 19.5379292,19.5784615 C17.3446899,17.414359 14.4381155,16.3682051 11.5155709,16.3682051 C11.0204951,16.3682051 10.5999468,16.1271795 10.2965132,15.7784615 L10.2379558,15.7784615 C9.63108863,15.1887179 9.63108863,14.2502564 10.2379558,13.665641 L20.8208677,3.18871795 L4.51530476,3.18871795 C3.66888475,3.18871795 2.99813681,2.5425641 2.99813681,1.72205128 C2.99813681,0.906666667 3.66888475,0.255384615 4.51530476,0.255384615 L24.4088368,0.255384615 C25.2499335,0.255384615 25.9260048,0.906666667 25.9260048,1.72205128 C25.9260048,1.95282051 25.8514772,2.19384615 25.7396859,2.36820513 C25.6758052,2.5425641 25.553367,2.71692308 25.4415757,2.83487179" id="Fill-6"/>
                <path d="M30.9209476,20.7558974 C30.9209476,25.7917949 32.3156774,30.3097436 34.5035933,33.4687179 C36.6915092,36.5661538 39.6087304,38.3866667 42.6537131,38.3866667 C45.6933724,38.3866667 48.5520362,36.5661538 50.7931861,33.4687179 C52.9864253,30.3097436 54.4503593,25.7917949 54.4503593,20.7558974 C54.4503593,15.72 52.9864253,11.2071795 50.7931861,8.04820513 C48.5520362,4.83282051 45.6933724,3.13025641 42.6537131,3.13025641 C39.6087304,3.13025641 36.6915092,4.83282051 34.5035933,8.04820513 C32.3156774,11.2071795 30.9209476,15.72 30.9209476,20.7558974 M27.9345222,20.7558974 C27.9345222,15.2482051 29.3984562,10.2174359 32.0069204,6.40205128 C34.620708,2.77641026 38.3364386,0.253333333 42.6537131,0.253333333 C46.9656641,0.253333333 50.6813947,2.77641026 53.2898589,6.40205128 C55.8504126,10.2174359 57.4314613,15.2482051 57.4314613,20.7558974 C57.4314613,26.2584615 55.8504126,31.2994872 53.2898589,35.0533333 C50.6813947,38.7405128 46.9656641,41.2584615 42.6537131,41.2584615 C38.3364386,41.2584615 34.620708,38.7405128 32.0069204,35.0533333 C29.3984562,31.2994872 27.9345222,26.2584615 27.9345222,20.7558974" id="Fill-8"/>
                <path d="M172.235294,27.74 L190.627628,27.74 C189.829119,23.3451282 185.95901,20.14 181.503327,20.14 C176.9465,20.14 173.124301,23.2938462 172.235294,27.74 M169.706681,29.6015385 C169.706681,23.1041026 174.95555,17.8528205 181.503327,17.8528205 C187.747671,17.8528205 192.709076,22.6271795 193.198829,28.74 L193.198829,28.7861538 L193.198829,28.9297436 C193.198829,29.5553846 192.655842,29.9861538 192.006388,29.9861538 L172.075592,29.9861538 C172.336439,35.0989744 176.499335,38.965641 181.503327,38.965641 C184.723982,38.965641 187.69976,37.34 189.34469,34.7041026 C189.67474,34.1451282 190.420016,34.0425641 190.915092,34.3348718 C191.458078,34.7041026 191.655044,35.3810256 191.314347,35.9502564 C189.232899,39.1553846 185.612989,41.2579487 181.503327,41.2579487 C174.95555,41.2579487 169.706681,36.0015385 169.706681,29.6015385" id="Fill-10"/>
                <path d="M211.677402,27.4041026 C211.677402,23.44 208.350279,20.1938462 204.19803,20.1938462 C200.077722,20.1938462 196.755922,23.44 196.654778,27.4041026 L196.654778,40.1117949 L196.654778,40.3015385 C196.606867,40.4912821 196.553633,40.6861538 196.409902,40.8297436 C196.212936,41.1117949 195.861592,41.2553846 195.510248,41.2553846 L195.217461,41.2553846 C194.876763,41.1630769 194.578653,40.9220513 194.429598,40.6348718 C194.381688,40.5887179 194.381688,40.5425641 194.381688,40.4912821 C194.381688,40.44 194.328454,40.3887179 194.328454,40.3887179 L194.328454,40.1117949 L194.328454,27.4041026 L194.328454,27.0246154 L194.328454,19.0451282 C194.328454,18.4246154 194.823529,17.9015385 195.510248,17.9015385 C196.159702,17.9015385 196.654778,18.4246154 196.654778,19.0451282 L196.654778,21.2912821 C198.438116,19.2348718 201.163694,17.9015385 204.19803,17.9015385 C209.649188,17.9015385 214.062284,22.1989744 214.062284,27.4041026 L214.062284,40.1117949 C214.062284,40.7784615 213.508651,41.2553846 212.86452,41.2553846 C212.225712,41.2553846 211.677402,40.7784615 211.677402,40.1117949 L211.677402,27.4041026 Z" id="Fill-12"/>
                <path d="M229.311153,26.9661538 C229.311153,33.2841026 234.48017,38.3866667 240.740484,38.3866667 C247.064679,38.3866667 252.15917,33.2841026 252.15917,26.9661538 C252.15917,20.5764103 247.064679,15.4225641 240.740484,15.4225641 C234.597285,15.4225641 229.550705,20.345641 229.311153,26.494359 L229.311153,26.9661538 Z M226.319404,27.545641 L226.319404,26.9661538 L226.319404,26.3815385 L226.319404,1.65846154 C226.319404,0.904615385 226.995475,0.258461538 227.788661,0.258461538 C228.640405,0.258461538 229.311153,0.904615385 229.311153,1.65846154 L229.311153,18.1764103 C231.92494,14.7815385 236.061219,12.5558974 240.740484,12.5558974 C248.762843,12.5558974 255.150918,18.9969231 255.150918,26.9661538 C255.150918,34.8123077 248.762843,41.2584615 240.740484,41.2584615 C236.061219,41.2584615 231.92494,39.094359 229.311153,35.6892308 L229.311153,39.8533333 C229.311153,40.6071795 228.640405,41.2584615 227.788661,41.2584615 C226.995475,41.2584615 226.319404,40.6071795 226.319404,39.8533333 L226.319404,27.545641 Z" id="Fill-14"/>
                <path d="M258.246473,13.9625641 C258.246473,13.1420513 258.911898,12.5574359 259.710407,12.5574359 C260.567474,12.5574359 261.227575,13.1420513 261.227575,13.9625641 L261.227575,39.8548718 C261.227575,40.6087179 260.567474,41.2548718 259.710407,41.2548718 C258.911898,41.2548718 258.246473,40.6087179 258.246473,39.8548718 L258.246473,13.9625641 Z M258.246473,4.59333333 C258.246473,3.82923077 258.911898,3.18820513 259.710407,3.18820513 C260.567474,3.18820513 261.227575,3.82923077 261.227575,4.59333333 L261.227575,5.93692308 C261.227575,6.7574359 260.567474,7.46 259.710407,7.46 C258.911898,7.46 258.246473,6.7574359 258.246473,5.93692308 L258.246473,4.59333333 Z" id="Fill-16"/>
                <path d="M264.750067,26.8430769 C264.750067,18.8841026 271.564014,12.5558974 280.065478,12.5558974 C283.61086,12.5558974 286.943306,13.7251282 289.56774,15.72 C290.169284,16.1302564 290.291722,17.0071795 289.743412,17.6533333 C289.258983,18.1764103 288.40724,18.3558974 287.736492,17.8789744 C285.607133,16.2430769 282.929465,15.3046154 280.065478,15.3046154 C273.150386,15.3046154 267.667288,20.5251282 267.667288,26.8430769 C267.667288,33.2841026 273.150386,38.4430769 280.065478,38.4430769 C282.929465,38.4430769 285.607133,37.5097436 287.736492,35.9251282 C288.40724,35.4533333 289.258983,35.6379487 289.743412,36.1610256 C290.291722,36.8020513 290.169284,37.6789744 289.439979,38.2174359 C286.943306,40.0892308 283.61086,41.2584615 280.065478,41.2584615 C271.564014,41.2584615 264.750067,34.9251282 264.750067,26.8430769" id="Fill-18"/>
                <path d="M293.74288,13.9625641 C293.74288,13.1420513 294.408304,12.5574359 295.196167,12.5574359 C296.053234,12.5574359 296.713335,13.1420513 296.713335,13.9625641 L296.713335,39.8548718 C296.713335,40.6087179 296.053234,41.2548718 295.196167,41.2548718 C294.408304,41.2548718 293.74288,40.6087179 293.74288,39.8548718 L293.74288,13.9625641 Z M293.74288,4.59333333 C293.74288,3.82923077 294.408304,3.18820513 295.196167,3.18820513 C296.053234,3.18820513 296.713335,3.82923077 296.713335,4.59333333 L296.713335,5.93692308 C296.713335,6.7574359 296.053234,7.46 295.196167,7.46 C294.408304,7.46 293.74288,6.7574359 293.74288,5.93692308 L293.74288,4.59333333 Z" id="Fill-20"/>
                <path d="M91.9371839,27.434359 L91.9371839,26.4958974 C91.6976311,20.3471795 86.6563748,15.4241026 80.5131754,15.4241026 C74.2528613,15.4241026 69.0785201,20.5779487 69.0785201,26.9676923 C69.0785201,33.285641 74.2528613,38.3882051 80.5131754,38.3882051 C86.6563748,38.3882051 91.6976311,33.5215385 91.9371839,27.434359 L91.9371839,27.434359 Z M91.9371839,35.6907692 C89.3393665,39.0907692 85.1977642,41.2548718 80.5131754,41.2548718 C72.4854937,41.2548718 66.1027415,34.8087179 66.1027415,26.9676923 C66.1027415,18.9933333 72.4854937,12.5574359 80.5131754,12.5574359 C85.1977642,12.5574359 89.3393665,14.7779487 91.9371839,18.1779487 L91.9371839,1.66 C91.9371839,0.906153846 92.6132553,0.254871795 93.4596753,0.254871795 C94.2581847,0.254871795 94.9182859,0.906153846 94.9182859,1.66 L94.9182859,26.3779487 L94.9182859,26.9676923 L94.9182859,39.8548718 C94.9182859,40.6087179 94.2581847,41.2548718 93.4596753,41.2548718 C92.6132553,41.2548718 91.9371839,40.6087179 91.9371839,39.8548718 L91.9371839,35.6907692 Z" id="Fill-22"/>
                <path d="M101.247804,41.2564103 C102.104871,41.2564103 102.764972,40.6102564 102.764972,39.8564103 L102.764972,13.9641026 C102.764972,13.1435897 102.104871,12.5589744 101.247804,12.5589744 C100.459941,12.5589744 99.7945169,13.1435897 99.7945169,13.9641026 L99.7945169,39.8564103 C99.7945169,40.6102564 100.459941,41.2564103 101.247804,41.2564103" id="Fill-24"/>
                <path d="M131.254192,26.9082051 C131.254192,20.4671795 126.196966,15.3082051 120.05909,15.3082051 C113.985094,15.3082051 108.869311,20.4671795 108.869311,26.9082051 C108.869311,33.354359 113.985094,38.4466667 120.05909,38.4466667 C126.196966,38.4466667 131.254192,33.354359 131.254192,26.9082051 M134.16609,13.9646154 L134.16609,39.8517949 C134.16609,40.605641 133.500665,41.2569231 132.707479,41.2569231 C131.919617,41.2569231 131.254192,40.605641 131.254192,39.8517949 L131.254192,35.5748718 C128.704285,38.9697436 124.626564,41.2569231 120.05909,41.2569231 C112.217727,41.2569231 105.957413,34.754359 105.957413,26.9082051 C105.957413,19.0569231 112.217727,12.5594872 120.05909,12.5594872 C124.626564,12.5594872 128.704285,14.78 131.254192,18.1748718 L131.254192,13.9646154 C131.254192,13.1441026 131.919617,12.5594872 132.707479,12.5594872 C133.500665,12.5594872 134.16609,13.1441026 134.16609,13.9646154" id="Fill-26"/>
                <path d="M138.064413,35.2794872 C138.548842,34.6948718 139.459143,34.5717949 140.135214,35.1051282 C142.195369,36.5666667 145.474581,38.4435897 149.248869,38.4435897 C151.548576,38.4435897 153.56082,37.7410256 154.907639,36.6897436 C156.360926,35.7564103 157.154112,34.4641026 157.154112,33.1717949 C157.090232,31.8230769 156.547245,30.8948718 155.024754,29.6538462 C153.747139,28.7205128 151.612457,28.0230769 148.700559,27.5461538 L148.583444,27.4948718 C145.900452,27.0230769 143.520894,26.4384615 141.822731,25.2641026 C139.943572,24.2128205 138.6074,22.3358974 138.6074,20.1102564 C138.6074,17.8333333 139.943572,15.8384615 141.822731,14.4897436 C143.595422,13.3153846 146.081448,12.5564103 149.126431,12.5564103 C152.953953,12.5564103 155.690178,14.2487179 158.000532,15.6589744 C158.665957,16.1307692 158.852276,17.0076923 158.426404,17.6538462 C158.000532,18.2897436 157.090232,18.474359 156.419484,18.0692308 C154.231568,16.6641026 152.043652,15.1923077 149.126431,15.1923077 C146.693639,15.1923077 144.750599,15.8384615 143.46766,16.8333333 C142.259249,17.7666667 141.583178,18.9410256 141.583178,20.1102564 C141.583178,21.2846154 142.131488,22.1 143.286665,22.9820513 C144.622837,23.8641026 146.629758,24.5666667 149.365983,24.9717949 L149.483098,24.9717949 C152.352409,25.3769231 154.657439,26.2025641 156.728241,27.3205128 C158.665957,28.5512821 160.060687,30.7717949 160.060687,33.1717949 C160.060687,35.5769231 158.665957,37.5102564 156.653713,38.9666667 C154.593559,40.4384615 152.160767,41.2589744 149.248869,41.2589744 C144.441842,41.1974359 140.672877,39.0333333 138.250732,37.1564103 C137.638541,36.6282051 137.574661,35.8692308 138.064413,35.2794872" id="Fill-28"/>
            </g>
            <path d="M96.9846154,245.404615 C96.9846154,245.168718 97.0974359,244.927692 97.2153846,244.758462 L100.846154,239.312308 C101.312821,238.609744 101.789744,238.255897 102.487179,238.255897 C103.594872,238.255897 104.948718,239.014872 104.948718,239.599487 C104.948718,239.953333 104.651282,240.302051 104.307692,240.661026 L99.6153846,245.168718 C98.9128205,245.814872 98.5076923,245.927692 97.7384615,245.927692 C97.3282051,245.927692 96.9846154,245.696923 96.9846154,245.404615" id="Fill-30"/>
        </g>
    </g>
</svg>